<svg xmlns="http://www.w3.org/2000/svg" role="img" viewBox="0 0 128 128">
  <title>Zustand</title>
  <g fill="none" fill-rule="evenodd">
    <circle cx="34" cy="36" r="16" fill="#2D2A27"/>
    <circle cx="94" cy="36" r="16" fill="#2D2A27"/>
    <path
      fill="#2D2A27"
      d="M32 68c0-22.643 14.326-40 32-40s32 17.357 32 40-14.326 40-32 40-32-17.357-32-40Z"
    />
    <path
      fill="#3C3734"
      d="M43 80c0-12.15 9.402-22 21-22s21 9.85 21 22-9.402 22-21 22-21-9.85-21-22Z"
    />
    <path
      fill="#F4A259"
      d="M58 83c0-6.045 4.477-11 10-11s10 4.955 10 11-4.477 11-10 11-10-4.955-10-11Z"
    />
    <ellipse cx="52" cy="66" fill="#141210" rx="6" ry="9"/>
    <ellipse cx="76" cy="66" fill="#141210" rx="6" ry="9"/>
    <path
      fill="#141210"
      d="M64 88c2.761 0 5 1.79 5 4s-2.239 4-5 4-5-1.79-5-4 2.239-4 5-4Z"
    />
  </g>
</svg>
